# File created by Blade
# Date/Time:  Wed Sep 24 20:26:02 2014
# Frame Rate: 120.000 fps
#------------------------------------------------------
:FULLY-SPECIFIED
:DEGREES
493
root -8.369535 32.740426 1.427391 158.735960 -76.920891 -103.669029
Spine -27.592389 10.899586 -2.266247
Head -34.296208 6.460449 10.999414
LeftShoulder -9.094491 23.542765 11.287154
LeftArm 16.289401 41.064858 -69.028359
LeftForeArm 12.148575 -0.000000 17.316947
LeftHand -27.280556 -0.000000 -5.374626
LeftHandThumb1 -26.253704 0.000000 33.147579
RightShoulder -17.660802 7.398195 -23.406619
RightArm -24.952841 -34.401963 104.143417
RightForeArm -26.453460 -0.000000 15.669287
RightHand -2.939495 -0.000000 19.356423
RightHandThumb1 -24.326973 -0.000000 -32.862282
LeftUpLeg -47.321282 7.023947 -2.956313
LeftLeg -8.097874 -0.000000 0.000000
LeftFoot -10.365725 14.365675 -7.148553
LeftToeBase 4.769474 -0.000000 -0.000000
RightUpLeg 11.912278 -11.662157 -10.758333
RightLeg 15.245835 -0.000000 -0.000000
RightFoot 38.026561 4.998339 2.037855
RightToeBase 13.663589 -0.000000 -0.000000
494
root -8.345611 32.745115 1.434752 159.016020 -76.870205 -103.607490
Spine -27.616214 10.919363 -2.308881
Head -34.692895 6.506446 10.935620
LeftShoulder -9.095990 23.528465 11.287331
LeftArm 16.267675 40.992814 -69.020150
LeftForeArm 12.132269 -0.000000 17.353518
LeftHand -27.299204 0.000000 -5.348685
LeftHandThumb1 -26.253704 0.000000 33.147579
RightShoulder -17.699144 7.385656 -23.367107
RightArm -24.998587 -34.442371 104.151505
RightForeArm -26.728291 -0.000000 15.592722
RightHand -2.708837 -0.000000 19.141333
RightHandThumb1 -24.326973 -0.000000 -32.862282
LeftUpLeg -47.700080 7.040065 -2.962896
LeftLeg -8.111610 -0.000000 0.000000
LeftFoot -10.336026 14.364170 -7.310968
LeftToeBase 4.807707 -0.000000 -0.000000
RightUpLeg 11.879702 -11.634240 -10.789074
RightLeg 15.277612 -0.000000 -0.000000
RightFoot 38.075989 4.981747 2.021086
RightToeBase 13.512759 -0.000000 -0.000000
495
root -8.321535 32.749068 1.442290 159.337189 -76.805275 -103.579640
Spine -27.649959 10.934856 -2.355325
Head -35.097242 6.600788 10.870921
LeftShoulder -9.124358 23.544178 11.301204
LeftArm 16.257187 40.882749 -69.028436
LeftForeArm 12.185527 0.000000 17.393419
LeftHand -27.308518 -0.000000 -5.343283
LeftHandThumb1 -26.253704 0.000000 33.147579
RightShoulder -17.676036 7.401154 -23.360133
RightArm -25.065554 -34.393834 104.151479
RightForeArm -26.448487 -0.000000 15.684630
RightHand -3.021045 -0.000000 19.482683
RightHandThumb1 -24.326973 -0.000000 -32.862282
LeftUpLeg -48.109097 7.126882 -3.046446
LeftLeg -8.098658 -0.000000 0.000000
LeftFoot -10.324289 14.270135 -7.426274
LeftToeBase 4.775098 -0.000000 -0.000000
RightUpLeg 11.843882 -11.638906 -10.847861
RightLeg 15.287616 -0.000000 -0.000000
RightFoot 38.057591 4.854997 2.078801
RightToeBase 13.946873 -0.000000 -0.000000
496
root -8.297279 32.753526 1.449802 159.659899 -76.744922 -103.538703
Spine -27.723626 10.960354 -2.411786
Head -35.427295 6.661235 10.822145
LeftShoulder -9.053535 23.516100 11.369513
LeftArm 16.133525 40.804675 -69.131085
LeftForeArm 12.251762 -0.000000 17.402573
LeftHand -27.202270 -0.000000 -5.400407
LeftHandThumb1 -26.253704 0.000000 33.147579
RightShoulder -17.706076 7.391430 -23.346910
RightArm -25.135006 -34.392297 104.162446
RightForeArm -26.479736 -0.000000 15.694902
RightHand -2.980212 -0.000000 19.469191
RightHandThumb1 -24.326973 -0.000000 -32.862282
LeftUpLeg -48.536810 7.216212 -3.150244
LeftLeg -8.085117 -0.000000 0.000000
LeftFoot -10.297524 14.155609 -7.528512
LeftToeBase 4.743924 -0.000000 -0.000000
RightUpLeg 11.786657 -11.693237 -10.922113
RightLeg 15.324744 -0.000000 -0.000000
RightFoot 38.210831 4.803510 2.219686
RightToeBase 13.576513 -0.000000 -0.000000
497
root -8.273117 32.756909 1.459285 160.071973 -76.687946 -103.609288
Spine -27.769719 10.980796 -2.487917
Head -35.774678 6.702920 10.784073
LeftShoulder -9.017389 23.491861 11.406088
LeftArm 16.041915 40.783927 -69.169207
LeftForeArm 12.331562 -0.000000 17.450172
LeftHand -27.327949 -0.000000 -5.269074
LeftHandThumb1 -26.253704 0.000000 33.147579
RightShoulder -17.697822 7.412332 -23.315620
RightArm -25.195425 -34.350461 104.151024
RightForeArm -26.419408 0.000000 15.692151
RightHand -3.046790 -0.000000 19.650777
RightHandThumb1 -24.326973 -0.000000 -32.862282
LeftUpLeg -48.935900 7.304370 -3.276778
LeftLeg -8.083291 -0.000000 0.000000
LeftFoot -10.269372 14.071922 -7.538666
LeftToeBase 4.820577 -0.000000 -0.000000
RightUpLeg 11.758930 -11.661745 -11.000482
RightLeg 15.359898 -0.000000 -0.000000
RightFoot 38.146416 4.768771 2.359717
RightToeBase 13.686711 -0.000000 -0.000000
498
root -8.251780 32.760819 1.466924 160.296936 -76.628336 -103.493607
Spine -27.811839 10.974776 -2.495567
Head -36.108692 6.775057 10.676477
LeftShoulder -9.052448 23.600599 11.397704
LeftArm 16.190875 40.840967 -69.035148
LeftForeArm 12.340523 -0.000000 17.436611
LeftHand -27.372819 -0.000000 -5.172718
LeftHandThumb1 -26.253704 0.000000 33.147579
RightShoulder -17.673771 7.391512 -23.289825
RightArm -25.197323 -34.332055 104.116394
RightForeArm -26.465741 0.000000 15.659566
RightHand -3.009196 -0.000000 19.652182
RightHandThumb1 -24.326973 -0.000000 -32.862282
LeftUpLeg -49.329650 7.407507 -3.394054
LeftLeg -8.085885 -0.000000 0.000000
LeftFoot -10.229940 13.927611 -7.582522
LeftToeBase 4.844140 -0.000000 -0.000000
RightUpLeg 11.719923 -11.657343 -11.015860
RightLeg 15.414892 -0.000000 -0.000000
RightFoot 38.222067 5.016406 2.075853
RightToeBase 13.378864 -0.000000 -0.000000
499
root -8.230185 32.765042 1.474407 160.596121 -76.565832 -103.443735
Spine -27.880053 10.980377 -2.528207
Head -36.412450 6.794962 10.617896
LeftShoulder -8.994604 23.542906 11.429331
LeftArm 16.017372 40.843508 -69.123152
LeftForeArm 12.453295 -0.000000 17.441927
LeftHand -27.419329 -0.000000 -5.098524
LeftHandThumb1 -26.253704 0.000000 33.147579
RightShoulder -17.652742 7.413900 -23.294811
RightArm -25.264033 -34.271193 104.123958
RightForeArm -26.512455 -0.000000 15.633237
RightHand -3.059285 -0.000000 19.715098
RightHandThumb1 -24.326973 -0.000000 -32.862282
LeftUpLeg -49.724045 7.496707 -3.504943
LeftLeg -8.105799 -0.000000 0.000000
LeftFoot -10.182501 13.832381 -7.602534
LeftToeBase 4.818244 -0.000000 -0.000000
RightUpLeg 11.685534 -11.635314 -11.061530
RightLeg 15.436651 -0.000000 -0.000000
RightFoot 38.236544 5.031163 2.123111
RightToeBase 13.425593 -0.000000 -0.000000
500
root -8.208153 32.769006 1.480675 160.807995 -76.490878 -103.313269
Spine -27.936218 10.978758 -2.539418
Head -36.707189 6.876325 10.596473
LeftShoulder -9.007498 23.538963 11.446961
LeftArm 15.982755 40.863887 -69.144047
LeftForeArm 12.546203 -0.000000 17.386298
LeftHand -27.558124 -0.000000 -4.954062
LeftHandThumb1 -26.253704 0.000000 33.147579
RightShoulder -17.658635 7.360859 -23.263734
RightArm -25.228387 -34.397044 104.108761
RightForeArm -26.345908 0.000000 15.588538
RightHand -3.054011 -0.000000 19.765216
RightHandThumb1 -24.326973 -0.000000 -32.862282
LeftUpLeg -50.113766 7.570647 -3.563901
LeftLeg -8.113691 -0.000000 0.000000
LeftFoot -10.146638 13.760995 -7.583946
LeftToeBase 4.878710 -0.000000 -0.000000
RightUpLeg 11.641366 -11.603025 -11.066253
RightLeg 15.494881 -0.000000 -0.000000
RightFoot 38.271116 4.973385 1.925369
RightToeBase 12.799997 -0.000000 -0.000000
501
root -8.186718 32.771518 1.487338 161.038234 -76.436156 -103.221130
Spine -27.956715 10.976596 -2.574314
Head -37.066345 6.901812 10.547356
LeftShoulder -9.014672 23.535971 11.451973
LeftArm 15.942603 40.844825 -69.132339
LeftForeArm 12.674244 0.000000 17.387130
LeftHand -27.717199 -0.000000 -4.956355
LeftHandThumb1 -26.253704 0.000000 33.147579
RightShoulder -17.630283 7.427452 -23.244568
RightArm -25.347838 -34.349256 104.121348
RightForeArm -26.363274 -0.000000 15.577947
RightHand -3.037200 -0.000000 19.747898
RightHandThumb1 -24.326973 -0.000000 -32.862282
LeftUpLeg -50.474893 7.608395 -3.605898
LeftLeg -8.129796 -0.000000 0.000000
LeftFoot -10.108182 13.726115 -7.594510
LeftToeBase 4.835603 -0.000000 -0.000000
RightUpLeg 11.626007 -11.579707 -11.099271
RightLeg 15.560072 -0.000000 -0.000000
RightFoot 38.264389 4.962619 1.944862
RightToeBase 12.859054 -0.000000 -0.000000
502
root -8.163913 32.774381 1.493337 161.127340 -76.370181 -102.997080
Spine -27.959115 10.989007 -2.563340
Head -37.417038 6.959036 10.491549
LeftShoulder -9.024349 23.586793 11.461124
LeftArm 16.056511 40.915624 -69.024267
LeftForeArm 12.633681 -0.000000 17.319748
LeftHand -27.687190 -0.000000 -4.970882
LeftHandThumb1 -26.253704 0.000000 33.147579
RightShoulder -17.618795 7.425258 -23.222640
RightArm -25.386823 -34.341165 104.079363
RightForeArm -26.316570 0.000000 15.611141
RightHand -3.035826 -0.000000 19.701529
RightHandThumb1 -24.326973 -0.000000 -32.862282
LeftUpLeg -50.821768 7.623518 -3.575593
LeftLeg -8.146606 -0.000000 0.000000
LeftFoot -10.086086 13.731110 -7.655088
LeftToeBase 4.749865 -0.000000 -0.000000
RightUpLeg 11.623832 -11.502170 -11.080940
RightLeg 15.615722 -0.000000 -0.000000
RightFoot 38.279398 4.940853 1.969421
RightToeBase 12.745056 -0.000000 -0.000000
503
root -8.143037 32.777643 1.498705 161.337015 -76.298038 -102.888307
Spine -27.987840 10.989408 -2.598806
Head -37.731012 7.005152 10.492808
LeftShoulder -8.981431 23.446842 11.520713
LeftArm 15.811272 40.929675 -69.163112
LeftForeArm 12.682159 -0.000000 17.284271
LeftHand -27.776888 -0.000000 -4.853136
LeftHandThumb1 -26.253704 0.000000 33.147579
RightShoulder -17.582705 7.460881 -23.179725
RightArm -25.456801 -34.308049 104.059862
RightForeArm -26.328203 -0.000000 15.582619
RightHand -3.015636 -0.000000 19.605247
RightHandThumb1 -24.326973 -0.000000 -32.862282
LeftUpLeg -51.178886 7.667762 -3.583068
LeftLeg -8.151544 -0.000000 0.000000
LeftFoot -10.082182 13.702116 -7.722568
LeftToeBase 4.806963 -0.000000 -0.000000
RightUpLeg 11.613341 -11.527997 -11.114480
RightLeg 15.645417 -0.000000 -0.000000
RightFoot 38.361527 4.837322 2.003494
RightToeBase 12.943258 -0.000000 -0.000000
